<?xml version="1.0" encoding="UTF-8"?>
<svg xmlns="http://www.w3.org/2000/svg" xmlns:xlink="http://www.w3.org/1999/xlink" width="192px" height="192px" viewBox="0 0 192 192" version="1.1">
<g id="surface1">
<path style=" stroke:none;fill-rule:nonzero;fill:rgb(0%,0%,0.392157%);fill-opacity:1;" d="M 0 0 C 63.359375 0 126.71875 0 192 0 C 192 63.359375 192 126.71875 192 192 C 128.640625 192 65.28125 192 0 192 C 0 128.640625 0 65.28125 0 0 Z M 0 0 "/>
<path style=" stroke:none;fill-rule:nonzero;fill:rgb(22.745098%,34.901962%,65.882355%);fill-opacity:1;" d="M 162.636719 19.578125 C 163.152344 20.574219 163.65625 21.578125 164.140625 22.589844 C 165.144531 23.09375 166.148438 23.59375 167.152344 24.09375 C 169.292969 25.820312 171.265625 27.71875 173.269531 29.601562 C 173.820312 30.101562 174.367188 30.601562 174.933594 31.117188 C 175.71875 31.851562 175.71875 31.851562 176.523438 32.601562 C 177 33.046875 177.480469 33.492188 177.972656 33.949219 C 180.234375 36.597656 180.707031 38.703125 180.707031 42.164062 C 181.203125 42.164062 181.699219 42.164062 182.210938 42.164062 C 183.183594 45.265625 183.914062 47.9375 183.71875 51.199219 C 184.214844 51.199219 184.710938 51.199219 185.222656 51.199219 C 185.378906 51.679688 185.53125 52.160156 185.691406 52.65625 C 185.996094 53.589844 185.996094 53.589844 186.304688 54.542969 C 186.507812 55.160156 186.707031 55.78125 186.914062 56.421875 C 187.347656 57.949219 187.347656 57.949219 188.234375 58.730469 C 188.789062 62.0625 188.773438 63.832031 187.050781 66.78125 C 185.492188 68.914062 183.871094 70.980469 182.210938 73.035156 C 181.453125 74.035156 180.699219 75.039062 179.953125 76.046875 C 179.59375 76.527344 179.230469 77.007812 178.859375 77.5 C 175.515625 81.976562 172.257812 86.511719 169.023438 91.066406 C 165.984375 95.347656 162.882812 99.578125 159.71875 103.765625 C 156.199219 108.421875 152.808594 113.152344 149.464844 117.933594 C 146.839844 121.679688 144.128906 125.34375 141.363281 128.988281 C 137.144531 134.558594 133.089844 140.230469 129.578125 146.28125 C 128 148.328125 128 148.328125 126.183594 148.980469 C 120.761719 149 117.886719 147.503906 113.710938 144.128906 C 111.136719 142.066406 108.453125 140.257812 105.695312 138.445312 C 104.730469 137.808594 103.765625 137.171875 102.800781 136.53125 C 102.34375 136.230469 101.890625 135.933594 101.421875 135.621094 C 99.703125 134.484375 97.992188 133.335938 96.28125 132.1875 C 94.089844 130.726562 91.878906 129.324219 89.601562 128 C 90.191406 125.226562 91.320312 123.023438 92.660156 120.542969 C 94.738281 115.890625 94.285156 110.679688 94.304688 105.695312 C 94.320312 104.847656 94.335938 104 94.351562 103.125 C 94.378906 97.511719 93.640625 92.667969 91.859375 87.339844 C 91.972656 87.914062 92.089844 88.488281 92.210938 89.078125 C 93.304688 94.722656 93.53125 100.242188 93.554688 105.976562 C 93.558594 106.707031 93.566406 107.4375 93.574219 108.1875 C 93.546875 114.882812 92.945312 120.277344 88.847656 125.742188 C 88.503906 126.394531 88.164062 127.046875 87.8125 127.71875 C 86.1875 130.09375 84.621094 131.191406 82.070312 132.519531 C 79.152344 132.707031 79.152344 132.707031 76.800781 132.519531 C 76.800781 133.015625 76.800781 133.511719 76.800781 134.023438 C 77.34375 134.085938 77.886719 134.148438 78.445312 134.210938 C 80.992188 134.890625 82.332031 136.105469 84.328125 137.789062 C 85.074219 138.035156 85.820312 138.285156 86.589844 138.542969 C 86.589844 139.039062 86.589844 139.535156 86.589844 140.046875 C 88.15625 140.859375 89.671875 141.578125 91.339844 142.164062 C 94.074219 143.371094 96.238281 145.039062 98.636719 146.824219 C 98.253906 150.054688 97.839844 152.933594 96.375 155.859375 C 95.878906 156.105469 95.382812 156.355469 94.871094 156.613281 C 94.015625 158.128906 94.015625 158.128906 93.363281 159.625 C 89.835938 159.410156 88.109375 157.777344 85.644531 155.460938 C 84.355469 154.285156 84.355469 154.285156 82.707031 153.550781 C 81.316406 152.847656 81.316406 152.847656 80.566406 151.339844 C 79.171875 150.550781 79.171875 150.550781 77.554688 149.835938 C 74.625 148.496094 74.625 148.496094 73.789062 146.824219 C 67.578125 146.824219 61.363281 146.824219 54.964844 146.824219 C 52.390625 138.246094 52.390625 138.246094 53.457031 134.777344 C 54.210938 134.023438 54.210938 134.023438 56.589844 133.949219 C 58.046875 133.964844 58.046875 133.964844 59.53125 133.976562 C 60.5 133.984375 61.472656 133.988281 62.472656 133.996094 C 63.601562 134.011719 63.601562 134.011719 64.753906 134.023438 C 64.753906 133.527344 64.753906 133.03125 64.753906 132.519531 C 63.898438 132.472656 63.042969 132.425781 62.164062 132.375 C 55.976562 131.609375 50.535156 127.585938 46.445312 123.058594 C 45.175781 121.222656 45.175781 121.222656 45.175781 118.964844 C 44.429688 118.714844 43.6875 118.46875 42.917969 118.210938 C 41.953125 116.511719 41.953125 116.511719 41.035156 114.351562 C 40.714844 113.601562 40.390625 112.851562 40.058594 112.078125 C 39.761719 111.367188 39.460938 110.660156 39.152344 109.929688 C 38.917969 109.421875 38.679688 108.917969 38.433594 108.394531 C 36.074219 103.324219 36.003906 98.097656 36 92.613281 C 35.992188 92.035156 35.980469 91.453125 35.972656 90.859375 C 35.949219 82.472656 39.007812 75.226562 44.589844 69.066406 C 49.34375 64.457031 54.140625 64.605469 60.46875 64.566406 C 61.074219 64.550781 61.679688 64.535156 62.304688 64.519531 C 67.941406 64.480469 72.570312 65.945312 77.554688 68.519531 C 76.964844 68.035156 76.375 67.554688 75.769531 67.054688 C 74.996094 66.398438 74.226562 65.742188 73.457031 65.082031 C 72.699219 64.445312 71.9375 63.808594 71.15625 63.148438 C 68.890625 60.554688 68.6875 59.113281 68.519531 55.71875 C 68.449219 54.976562 68.382812 54.234375 68.3125 53.46875 C 68.285156 52.785156 68.261719 52.097656 68.234375 51.386719 C 68.199219 50.691406 68.160156 50 68.125 49.28125 C 68.519531 47.433594 68.519531 47.433594 70.125 46.160156 C 72.371094 45.136719 74.59375 44.289062 76.941406 43.53125 C 77.726562 43.269531 78.515625 43.011719 79.328125 42.742188 C 81.316406 42.164062 81.316406 42.164062 82.824219 42.164062 C 82.824219 41.667969 82.824219 41.171875 82.824219 40.660156 C 84.40625 40.152344 85.992188 39.652344 87.578125 39.152344 C 88.457031 38.875 89.339844 38.59375 90.25 38.304688 C 92.613281 37.648438 92.613281 37.648438 94.871094 37.648438 C 94.871094 37.148438 94.871094 36.652344 94.871094 36.140625 C 99.988281 33.921875 105.136719 32.300781 110.53125 30.890625 C 112.875 30.140625 114.648438 29.1875 116.707031 27.859375 C 118.953125 26.84375 120.246094 26.351562 122.730469 26.351562 C 122.730469 25.855469 122.730469 25.359375 122.730469 24.847656 C 124.171875 24.464844 125.613281 24.089844 127.058594 23.71875 C 128.265625 23.402344 128.265625 23.402344 129.492188 23.082031 C 131.765625 22.589844 131.765625 22.589844 134.777344 22.589844 C 134.777344 22.089844 134.777344 21.59375 134.777344 21.082031 C 135.769531 21.082031 136.765625 21.082031 137.789062 21.082031 C 137.789062 20.585938 137.789062 20.089844 137.789062 19.578125 C 146.050781 17.398438 154.609375 15.4375 162.636719 19.578125 Z M 162.636719 19.578125 "/>
<path style=" stroke:none;fill-rule:nonzero;fill:rgb(8.627451%,9.803922%,12.941177%);fill-opacity:1;" d="M 60.46875 64.566406 C 61.074219 64.550781 61.679688 64.535156 62.304688 64.519531 C 67.941406 64.480469 72.570312 65.945312 77.554688 68.519531 C 76.808594 67.523438 76.0625 66.53125 75.292969 65.507812 C 78.46875 66.722656 80.492188 69.078125 82.730469 71.53125 C 83.328125 72.183594 83.328125 72.183594 83.941406 72.851562 C 87.640625 76.976562 91.71875 81.699219 92.613281 87.339844 C 92.363281 87.839844 92.113281 88.335938 91.859375 88.847656 C 92.046875 90.085938 92.285156 91.3125 92.554688 92.535156 C 93.421875 97.023438 93.589844 101.320312 93.554688 105.882812 C 93.5625 106.980469 93.5625 106.980469 93.570312 108.101562 C 93.550781 114.828125 92.964844 120.25 88.847656 125.742188 C 88.503906 126.394531 88.164062 127.046875 87.8125 127.71875 C 86.1875 130.09375 84.621094 131.191406 82.070312 132.519531 C 79.152344 132.707031 79.152344 132.707031 76.800781 132.519531 C 76.800781 133.015625 76.800781 133.511719 76.800781 134.023438 C 77.34375 134.085938 77.886719 134.148438 78.445312 134.210938 C 80.992188 134.890625 82.332031 136.105469 84.328125 137.789062 C 85.449219 138.160156 85.449219 138.160156 86.589844 138.542969 C 86.589844 139.039062 86.589844 139.535156 86.589844 140.046875 C 88.15625 140.859375 89.671875 141.578125 91.339844 142.164062 C 94.074219 143.371094 96.238281 145.039062 98.636719 146.824219 C 98.253906 150.054688 97.839844 152.933594 96.375 155.859375 C 95.632812 156.230469 95.632812 156.230469 94.871094 156.613281 C 94.015625 158.128906 94.015625 158.128906 93.363281 159.625 C 89.835938 159.410156 88.109375 157.777344 85.644531 155.460938 C 84.355469 154.285156 84.355469 154.285156 82.707031 153.550781 C 81.316406 152.847656 81.316406 152.847656 80.566406 151.339844 C 79.171875 150.550781 79.171875 150.550781 77.554688 149.835938 C 74.625 148.496094 74.625 148.496094 73.789062 146.824219 C 67.578125 146.824219 61.363281 146.824219 54.964844 146.824219 C 52.390625 138.246094 52.390625 138.246094 53.457031 134.777344 C 54.210938 134.023438 54.210938 134.023438 56.589844 133.949219 C 57.5625 133.957031 58.53125 133.96875 59.53125 133.976562 C 60.988281 133.988281 60.988281 133.988281 62.472656 133.996094 C 63.226562 134.003906 63.976562 134.015625 64.753906 134.023438 C 64.753906 133.527344 64.753906 133.03125 64.753906 132.519531 C 63.898438 132.472656 63.042969 132.425781 62.164062 132.375 C 55.976562 131.609375 50.535156 127.585938 46.445312 123.058594 C 45.175781 121.222656 45.175781 121.222656 45.175781 118.964844 C 44.429688 118.714844 43.6875 118.46875 42.917969 118.210938 C 41.953125 116.511719 41.953125 116.511719 41.035156 114.351562 C 40.714844 113.601562 40.390625 112.851562 40.058594 112.078125 C 39.761719 111.367188 39.460938 110.660156 39.152344 109.929688 C 38.796875 109.167969 38.796875 109.167969 38.433594 108.394531 C 36.074219 103.324219 36.003906 98.097656 36 92.613281 C 35.992188 92.035156 35.980469 91.453125 35.972656 90.859375 C 35.949219 82.472656 39.007812 75.226562 44.589844 69.066406 C 49.34375 64.457031 54.140625 64.605469 60.46875 64.566406 Z M 60.46875 64.566406 "/>
<path style=" stroke:none;fill-rule:nonzero;fill:rgb(18.039216%,28.627452%,54.901963%);fill-opacity:1;" d="M 109.507812 19.765625 C 110.21875 19.832031 110.933594 19.898438 111.667969 19.964844 C 113.621094 20.316406 114.996094 20.851562 116.707031 21.835938 C 116.550781 23.242188 116.550781 23.242188 115.953125 24.847656 C 114.417969 25.730469 114.417969 25.730469 112.414062 26.433594 C 111.328125 26.820312 111.328125 26.820312 110.21875 27.214844 C 109.457031 27.476562 108.691406 27.734375 107.90625 28 C 106.78125 28.402344 106.78125 28.402344 105.636719 28.808594 C 102.070312 30.0625 98.644531 31.191406 94.871094 31.625 C 94.871094 32.121094 94.871094 32.617188 94.871094 33.128906 C 94.179688 33.320312 93.488281 33.511719 92.777344 33.707031 C 86.746094 35.375 86.746094 35.375 80.847656 37.457031 C 78.304688 38.398438 78.304688 38.398438 75.292969 38.398438 C 75.292969 38.898438 75.292969 39.394531 75.292969 39.90625 C 74.636719 40.078125 73.980469 40.253906 73.304688 40.433594 C 68.742188 41.683594 64.390625 42.988281 60.046875 44.894531 C 56.152344 46.59375 52.386719 47.566406 48.1875 48.1875 C 48.1875 48.683594 48.1875 49.183594 48.1875 49.695312 C 46.746094 50.183594 45.300781 50.667969 43.859375 51.152344 C 42.652344 51.558594 42.652344 51.558594 41.421875 51.972656 C 39.152344 52.707031 39.152344 52.707031 37.398438 53.101562 C 36.023438 53.335938 36.023438 53.335938 35.433594 54.683594 C 35.171875 55.273438 34.90625 55.863281 34.636719 56.46875 C 33.6875 57.800781 32.707031 59.101562 31.714844 60.398438 C 30.804688 61.84375 30.441406 63.085938 30.117188 64.753906 C 29.621094 64.753906 29.125 64.753906 28.613281 64.753906 C 28.519531 65.558594 28.425781 66.367188 28.328125 67.199219 C 27.914062 70.597656 27.296875 73.949219 26.65625 77.3125 C 25.929688 83.296875 26.394531 88.894531 27.625 94.777344 C 27.757812 95.433594 27.894531 96.09375 28.035156 96.769531 C 29.167969 101.96875 30.734375 106.675781 33.128906 111.433594 C 33.347656 111.878906 33.566406 112.324219 33.789062 112.785156 C 37.550781 120.441406 41.445312 128.144531 48.941406 132.707031 C 51.882812 134.515625 51.882812 134.515625 52.566406 137.035156 C 51.832031 139.742188 50.632812 141.59375 48.941406 143.8125 C 40.835938 143.605469 34.234375 134.707031 28.960938 129.292969 C 25.921875 126.089844 23.332031 122.769531 21.082031 118.964844 C 20.710938 118.335938 20.339844 117.707031 19.957031 117.0625 C 18.769531 114.960938 17.65625 112.835938 16.566406 110.683594 C 16.113281 109.804688 15.65625 108.921875 15.191406 108.019531 C 8.296875 94.273438 6.566406 78.085938 10.585938 63.109375 C 10.820312 62.410156 11.054688 61.710938 11.292969 60.988281 C 11.488281 60.390625 11.683594 59.789062 11.886719 59.171875 C 13.726562 55.179688 16.851562 53.945312 20.800781 52.421875 C 21.796875 52.066406 22.792969 51.714844 23.792969 51.371094 C 26.402344 50.546875 26.402344 50.546875 28.613281 48.941406 C 30.636719 48.847656 30.636719 48.847656 32.375 48.941406 C 32.375 48.445312 32.375 47.949219 32.375 47.433594 C 32.804688 47.351562 33.234375 47.269531 33.671875 47.183594 C 36.605469 46.582031 39.335938 45.941406 42.070312 44.707031 C 44.421875 43.671875 44.421875 43.671875 46.683594 43.671875 C 46.683594 43.171875 46.683594 42.675781 46.683594 42.164062 C 48.890625 41.40625 51.105469 40.65625 53.316406 39.90625 C 53.945312 39.691406 54.574219 39.476562 55.21875 39.253906 C 55.824219 39.050781 56.425781 38.84375 57.050781 38.636719 C 57.605469 38.445312 58.160156 38.257812 58.734375 38.0625 C 60.234375 37.648438 60.234375 37.648438 62.492188 37.648438 C 62.492188 37.148438 62.492188 36.652344 62.492188 36.140625 C 63.03125 35.964844 63.566406 35.792969 64.117188 35.613281 C 66.542969 34.820312 68.964844 34.023438 71.386719 33.222656 C 72.230469 32.949219 73.074219 32.675781 73.941406 32.390625 C 74.75 32.125 75.558594 31.855469 76.390625 31.582031 C 77.136719 31.335938 77.882812 31.09375 78.648438 30.839844 C 80.703125 30.148438 80.703125 30.148438 82.824219 28.613281 C 83.941406 28.171875 85.070312 27.765625 86.210938 27.386719 C 86.792969 27.191406 87.375 26.996094 87.976562 26.792969 C 89.601562 26.351562 89.601562 26.351562 91.859375 26.351562 C 91.859375 25.855469 91.859375 25.359375 91.859375 24.847656 C 93.042969 24.464844 93.042969 24.464844 94.25 24.078125 C 95.289062 23.738281 96.328125 23.398438 97.363281 23.058594 C 97.882812 22.890625 98.402344 22.726562 98.941406 22.554688 C 107.925781 19.601562 107.925781 19.601562 109.507812 19.765625 Z M 109.507812 19.765625 "/>
<path style=" stroke:none;fill-rule:nonzero;fill:rgb(12.156863%,14.509805%,20.392157%);fill-opacity:1;" d="M 144.625 21.6875 C 145.679688 21.695312 145.679688 21.695312 146.75 21.703125 C 147.472656 21.714844 148.195312 21.726562 148.941406 21.742188 C 149.679688 21.746094 150.414062 21.753906 151.175781 21.761719 C 152.988281 21.78125 154.800781 21.804688 156.613281 21.835938 C 156.613281 22.332031 156.613281 22.828125 156.613281 23.339844 C 157.265625 23.648438 157.265625 23.648438 157.933594 23.960938 C 159.613281 24.839844 161.035156 25.820312 162.542969 26.964844 C 163.0625 27.359375 163.582031 27.757812 164.121094 28.164062 C 165.488281 29.242188 166.820312 30.347656 168.140625 31.480469 C 170.058594 33.242188 170.058594 33.242188 172.421875 33.882812 C 172.796875 35.746094 172.796875 35.746094 173.175781 37.648438 C 166.796875 40.957031 160.390625 44.046875 153.742188 46.777344 C 148.464844 48.945312 143.5 51.386719 138.542969 54.210938 C 134.273438 56.46875 129.96875 58.457031 125.46875 60.210938 C 120.605469 62.109375 115.75 64.011719 111.152344 66.492188 C 108.363281 67.792969 106.90625 67.878906 103.90625 67.765625 C 103.667969 67.199219 103.429688 66.636719 103.183594 66.054688 C 99.316406 57.570312 93.953125 51.914062 85.710938 47.554688 C 85.027344 47.121094 85.027344 47.121094 84.328125 46.683594 C 84.328125 46.183594 84.328125 45.6875 84.328125 45.175781 C 84.976562 44.957031 85.625 44.738281 86.292969 44.511719 C 90.988281 42.882812 95.511719 41.171875 100 39.011719 C 103.8125 37.195312 107.277344 36.09375 111.433594 35.386719 C 111.433594 34.890625 111.433594 34.394531 111.433594 33.882812 C 112.609375 33.519531 113.789062 33.160156 114.964844 32.800781 C 115.621094 32.597656 116.273438 32.398438 116.949219 32.191406 C 118.867188 31.652344 120.773438 31.234375 122.730469 30.871094 C 122.730469 30.375 122.730469 29.875 122.730469 29.363281 C 124.21875 29.363281 125.710938 29.363281 127.246094 29.363281 C 127.246094 28.867188 127.246094 28.371094 127.246094 27.859375 C 128.59375 27.355469 129.945312 26.851562 131.292969 26.351562 C 132.046875 26.074219 132.796875 25.792969 133.570312 25.507812 C 135.53125 24.847656 135.53125 24.847656 137.035156 24.847656 C 137.035156 24.351562 137.035156 23.851562 137.035156 23.339844 C 139.683594 22.140625 141.722656 21.652344 144.625 21.6875 Z M 144.625 21.6875 "/>
<path style=" stroke:none;fill-rule:nonzero;fill:rgb(63.921571%,40.784314%,0%);fill-opacity:1;" d="M 71.09375 72.863281 C 79.757812 79.179688 84.925781 86.679688 87.339844 97.128906 C 88.3125 104.664062 88.371094 112.722656 85.082031 119.71875 C 82.710938 122.507812 79.953125 124.011719 76.421875 124.894531 C 75.800781 124.925781 75.179688 124.957031 74.542969 124.988281 C 74.542969 125.484375 74.542969 125.980469 74.542969 126.492188 C 67.367188 126.839844 61.269531 125.691406 55.578125 121.078125 C 53.15625 118.667969 51.421875 115.875 49.695312 112.941406 C 49.3125 112.335938 48.929688 111.726562 48.539062 111.101562 C 44.015625 103.207031 42.382812 93.648438 44.019531 84.683594 C 45.398438 79.929688 47.800781 76.414062 51.851562 73.546875 C 57.671875 70.410156 65.191406 69.804688 71.09375 72.863281 Z M 71.09375 72.863281 "/>
<path style=" stroke:none;fill-rule:nonzero;fill:rgb(18.039216%,28.235295%,54.509807%);fill-opacity:1;" d="M 69.269531 46.683594 C 70.777344 48.941406 70.777344 48.941406 70.777344 50.445312 C 71.441406 50.566406 71.441406 50.566406 72.117188 50.691406 C 75.296875 51.660156 77.441406 54.230469 79.8125 56.46875 C 80.167969 56.800781 80.519531 57.128906 80.886719 57.46875 C 86.210938 62.457031 90.527344 67.375 94.117188 73.789062 C 94.816406 74.953125 94.816406 74.953125 95.527344 76.136719 C 98.78125 81.773438 100.488281 86.988281 101.648438 93.363281 C 101.800781 94.007812 101.953125 94.648438 102.113281 95.308594 C 104.785156 106.640625 102.054688 116.929688 99.386719 128 C 99.972656 128.230469 100.558594 128.460938 101.164062 128.695312 C 103.0625 129.46875 104.765625 130.363281 106.542969 131.386719 C 108.398438 132.445312 110.082031 133.328125 112.09375 134.070312 C 114.066406 134.941406 114.6875 136.082031 115.953125 137.789062 C 116.949219 138.070312 117.953125 138.320312 118.964844 138.542969 C 119.734375 139.277344 120.484375 140.03125 121.222656 140.800781 C 123.179688 142.242188 124.433594 143.015625 126.871094 143.199219 C 129.457031 141.972656 130.195312 140.21875 131.574219 137.773438 C 132.519531 136.28125 132.519531 136.28125 134.445312 134.777344 C 136.511719 133.082031 137.273438 131.394531 138.378906 129.003906 C 141.382812 123.234375 145.894531 118.15625 150.015625 113.160156 C 151.367188 111.398438 152.476562 109.582031 153.601562 107.671875 C 154.605469 106.414062 155.609375 105.160156 156.613281 103.90625 C 158.898438 100.714844 161.125 97.484375 163.339844 94.242188 C 163.808594 93.5625 164.273438 92.886719 164.753906 92.1875 C 165.175781 91.566406 165.601562 90.945312 166.039062 90.304688 C 167.152344 88.847656 167.152344 88.847656 168.660156 88.09375 C 168.867188 87.546875 169.078125 86.996094 169.292969 86.433594 C 170.351562 83.878906 171.8125 82.148438 173.601562 80.046875 C 175.878906 77.449219 175.878906 77.449219 177.695312 74.542969 C 178.191406 74.542969 178.6875 74.542969 179.199219 74.542969 C 179.480469 73.75 179.480469 73.75 179.765625 72.941406 C 180.828125 70.496094 182.242188 68.472656 183.71875 66.257812 C 185.078125 63.429688 185.394531 61.242188 185.316406 58.117188 C 185.304688 57.382812 185.289062 56.648438 185.277344 55.890625 C 185.257812 55.335938 185.242188 54.78125 185.222656 54.210938 C 185.550781 54.910156 185.550781 54.910156 185.882812 55.625 C 186.683594 57.324219 186.683594 57.324219 188.234375 58.730469 C 188.847656 62.09375 188.792969 63.804688 187.046875 66.78125 C 185.492188 68.914062 183.875 70.980469 182.210938 73.035156 C 181.453125 74.035156 180.699219 75.039062 179.953125 76.046875 C 179.59375 76.527344 179.230469 77.007812 178.859375 77.5 C 175.515625 81.976562 172.257812 86.511719 169.023438 91.066406 C 165.984375 95.347656 162.882812 99.578125 159.71875 103.765625 C 156.199219 108.421875 152.808594 113.152344 149.464844 117.933594 C 146.839844 121.679688 144.128906 125.34375 141.363281 128.988281 C 137.144531 134.558594 133.089844 140.230469 129.578125 146.28125 C 128 148.328125 128 148.328125 126.183594 148.980469 C 120.761719 149 117.886719 147.503906 113.710938 144.128906 C 111.136719 142.066406 108.453125 140.257812 105.695312 138.445312 C 104.730469 137.808594 103.765625 137.171875 102.800781 136.53125 C 102.34375 136.230469 101.890625 135.933594 101.421875 135.621094 C 99.703125 134.484375 97.992188 133.335938 96.28125 132.1875 C 94.089844 130.726562 91.878906 129.324219 89.601562 128 C 90.191406 125.226562 91.320312 123.023438 92.660156 120.542969 C 96.800781 111.277344 95.121094 96.007812 92.039062 86.613281 C 89.570312 80.566406 86.097656 76.050781 81.742188 71.246094 C 81.335938 70.796875 80.933594 70.351562 80.515625 69.886719 C 77.765625 66.964844 75.089844 65.097656 71.53125 63.246094 C 69.515625 61.839844 69.3125 61.171875 68.753906 58.730469 C 68.359375 54.996094 68.296875 51.183594 68.519531 47.433594 C 68.765625 47.1875 69.015625 46.9375 69.269531 46.683594 Z M 69.269531 46.683594 "/>
<path style=" stroke:none;fill-rule:nonzero;fill:rgb(22.352941%,33.725491%,63.921571%);fill-opacity:1;" d="M 109.507812 19.765625 C 110.21875 19.832031 110.933594 19.898438 111.667969 19.964844 C 113.621094 20.316406 114.996094 20.851562 116.707031 21.835938 C 116.550781 23.242188 116.550781 23.242188 115.953125 24.847656 C 114.417969 25.730469 114.417969 25.730469 112.414062 26.433594 C 111.691406 26.691406 110.964844 26.949219 110.21875 27.214844 C 109.457031 27.476562 108.691406 27.734375 107.90625 28 C 107.15625 28.265625 106.410156 28.535156 105.636719 28.808594 C 102.070312 30.0625 98.644531 31.191406 94.871094 31.625 C 94.871094 32.121094 94.871094 32.617188 94.871094 33.128906 C 94.179688 33.320312 93.488281 33.511719 92.777344 33.707031 C 86.746094 35.375 86.746094 35.375 80.847656 37.457031 C 78.304688 38.398438 78.304688 38.398438 75.292969 38.398438 C 75.292969 38.898438 75.292969 39.394531 75.292969 39.90625 C 74.636719 40.078125 73.980469 40.253906 73.304688 40.433594 C 68.742188 41.683594 64.390625 42.988281 60.046875 44.894531 C 56.152344 46.59375 52.386719 47.566406 48.1875 48.1875 C 48.1875 48.683594 48.1875 49.183594 48.1875 49.695312 C 46.746094 50.183594 45.300781 50.667969 43.859375 51.152344 C 42.652344 51.558594 42.652344 51.558594 41.421875 51.972656 C 39.152344 52.707031 39.152344 52.707031 37.398438 53.101562 C 36.023438 53.335938 36.023438 53.335938 35.433594 54.683594 C 35.171875 55.273438 34.90625 55.863281 34.636719 56.46875 C 33.6875 57.800781 32.707031 59.101562 31.714844 60.398438 C 30.804688 61.84375 30.441406 63.085938 30.117188 64.753906 C 29.621094 64.753906 29.125 64.753906 28.613281 64.753906 C 28.519531 65.558594 28.425781 66.367188 28.328125 67.199219 C 27.914062 70.597656 27.296875 73.949219 26.65625 77.3125 C 25.925781 83.34375 26.421875 88.945312 27.671875 94.871094 C 27.804688 95.527344 27.9375 96.1875 28.078125 96.863281 C 28.941406 100.914062 30.050781 104.652344 31.761719 108.433594 C 32.683594 110.671875 32.921875 112.796875 33.128906 115.199219 C 32.011719 115.574219 32.011719 115.574219 30.871094 115.953125 C 29.753906 112.597656 29.753906 112.597656 28.613281 109.175781 C 28.113281 109.175781 27.617188 109.175781 27.105469 109.175781 C 26.488281 107.296875 25.878906 105.414062 25.269531 103.53125 C 25.011719 102.742188 25.011719 102.742188 24.746094 101.941406 C 21.125 90.605469 20.925781 76.03125 24.847656 64.753906 C 25.21875 64.378906 25.21875 64.378906 25.601562 64 C 25.4375 61.15625 25.210938 59.257812 23.578125 56.894531 C 21.363281 55.398438 19.933594 55.480469 17.316406 55.71875 C 18.0625 55.34375 18.0625 55.34375 18.824219 54.964844 C 18.824219 54.46875 18.824219 53.972656 18.824219 53.457031 C 19.46875 53.195312 20.109375 52.933594 20.773438 52.660156 C 21.605469 52.320312 22.4375 51.976562 23.292969 51.625 C 24.125 51.28125 24.953125 50.941406 25.808594 50.589844 C 27.757812 49.886719 27.757812 49.886719 28.613281 48.941406 C 29.867188 48.910156 31.121094 48.910156 32.375 48.941406 C 32.375 48.445312 32.375 47.949219 32.375 47.433594 C 32.804688 47.351562 33.234375 47.269531 33.671875 47.183594 C 36.605469 46.582031 39.335938 45.941406 42.070312 44.707031 C 44.421875 43.671875 44.421875 43.671875 46.683594 43.671875 C 46.683594 43.171875 46.683594 42.675781 46.683594 42.164062 C 48.890625 41.40625 51.105469 40.65625 53.316406 39.90625 C 53.945312 39.691406 54.574219 39.476562 55.21875 39.253906 C 55.824219 39.050781 56.425781 38.84375 57.050781 38.636719 C 57.605469 38.445312 58.160156 38.257812 58.734375 38.0625 C 60.234375 37.648438 60.234375 37.648438 62.492188 37.648438 C 62.492188 37.148438 62.492188 36.652344 62.492188 36.140625 C 63.03125 35.964844 63.566406 35.792969 64.117188 35.613281 C 66.542969 34.820312 68.964844 34.023438 71.386719 33.222656 C 72.230469 32.949219 73.074219 32.675781 73.941406 32.390625 C 74.75 32.125 75.558594 31.855469 76.390625 31.582031 C 77.136719 31.335938 77.882812 31.09375 78.648438 30.839844 C 80.703125 30.148438 80.703125 30.148438 82.824219 28.613281 C 83.941406 28.171875 85.070312 27.765625 86.210938 27.386719 C 86.792969 27.191406 87.375 26.996094 87.976562 26.792969 C 89.601562 26.351562 89.601562 26.351562 91.859375 26.351562 C 91.859375 25.855469 91.859375 25.359375 91.859375 24.847656 C 93.042969 24.464844 93.042969 24.464844 94.25 24.078125 C 95.289062 23.738281 96.328125 23.398438 97.363281 23.058594 C 97.882812 22.890625 98.402344 22.726562 98.941406 22.554688 C 107.925781 19.601562 107.925781 19.601562 109.507812 19.765625 Z M 109.507812 19.765625 "/>
<path style=" stroke:none;fill-rule:nonzero;fill:rgb(16.078432%,18.431373%,25.490198%);fill-opacity:1;" d="M 144.625 21.6875 C 145.679688 21.695312 145.679688 21.695312 146.75 21.703125 C 147.472656 21.714844 148.195312 21.726562 148.941406 21.742188 C 149.679688 21.746094 150.414062 21.753906 151.175781 21.761719 C 152.988281 21.78125 154.800781 21.804688 156.613281 21.835938 C 156.613281 22.332031 156.613281 22.828125 156.613281 23.339844 C 157.355469 23.714844 157.355469 23.714844 158.117188 24.09375 C 158.589844 25.648438 158.589844 25.648438 158.871094 27.105469 C 157.695312 27.570312 157.695312 27.570312 156.492188 28.046875 C 149.859375 30.707031 143.4375 33.613281 137.066406 36.859375 C 129.445312 40.738281 121.761719 44.304688 113.738281 47.269531 C 110.554688 48.539062 107.558594 50.113281 104.519531 51.683594 C 101.621094 53.082031 98.703125 54.039062 95.625 54.964844 C 94.96875 54.351562 94.96875 54.351562 94.300781 53.726562 C 91.128906 50.824219 88.320312 48.320312 84.328125 46.683594 C 84.328125 46.183594 84.328125 45.6875 84.328125 45.175781 C 84.976562 44.957031 85.625 44.738281 86.292969 44.511719 C 90.988281 42.882812 95.511719 41.171875 100 39.011719 C 103.8125 37.195312 107.277344 36.09375 111.433594 35.386719 C 111.433594 34.890625 111.433594 34.394531 111.433594 33.882812 C 112.609375 33.519531 113.789062 33.160156 114.964844 32.800781 C 115.621094 32.597656 116.273438 32.398438 116.949219 32.191406 C 118.867188 31.652344 120.773438 31.234375 122.730469 30.871094 C 122.730469 30.375 122.730469 29.875 122.730469 29.363281 C 124.21875 29.363281 125.710938 29.363281 127.246094 29.363281 C 127.246094 28.867188 127.246094 28.371094 127.246094 27.859375 C 128.59375 27.355469 129.945312 26.851562 131.292969 26.351562 C 132.046875 26.074219 132.796875 25.792969 133.570312 25.507812 C 135.53125 24.847656 135.53125 24.847656 137.035156 24.847656 C 137.035156 24.351562 137.035156 23.851562 137.035156 23.339844 C 139.683594 22.140625 141.722656 21.652344 144.625 21.6875 Z M 144.625 21.6875 "/>
<path style=" stroke:none;fill-rule:nonzero;fill:rgb(98.431373%,98.431373%,0%);fill-opacity:1;" d="M 72.28125 75.386719 C 76.359375 76.578125 79.386719 79.558594 81.722656 83.050781 C 86.933594 92.671875 88.6875 102.015625 87.339844 112.941406 C 86.566406 115.285156 86.566406 115.285156 85.835938 116.707031 C 79.726562 117.15625 75.648438 116.414062 70.84375 112.53125 C 64.78125 106.90625 61.769531 98.8125 61.457031 90.589844 C 61.699219 85.429688 63.101562 81.894531 66.871094 78.304688 C 68.757812 76.8125 69.949219 76.070312 72.28125 75.386719 Z M 72.28125 75.386719 "/>
<path style=" stroke:none;fill-rule:nonzero;fill:rgb(12.54902%,14.509805%,20.392157%);fill-opacity:1;" d="M 54.210938 151.339844 C 67.394531 150.472656 77.679688 149.921875 88.09375 158.871094 C 88.839844 159.367188 89.585938 159.863281 90.351562 160.375 C 89.992188 163.933594 88.527344 165.71875 86.210938 168.375 C 83.660156 171.25 83.660156 171.25 82.070312 174.683594 C 75.394531 174.789062 68.742188 174.617188 62.070312 174.351562 C 61.28125 174.324219 60.496094 174.292969 59.683594 174.261719 C 58.933594 174.230469 58.183594 174.199219 57.410156 174.167969 C 56.738281 174.140625 56.066406 174.113281 55.378906 174.085938 C 53.433594 173.925781 51.597656 173.597656 49.695312 173.175781 C 50.175781 169.082031 50.773438 165.039062 51.53125 160.988281 C 51.621094 160.472656 51.710938 159.957031 51.808594 159.425781 C 52.339844 156.5625 53.089844 154.019531 54.210938 151.339844 Z M 54.210938 151.339844 "/>
<path style=" stroke:none;fill-rule:nonzero;fill:rgb(17.647059%,28.235295%,53.725493%);fill-opacity:1;" d="M 60.578125 134.597656 C 61.136719 134.589844 61.695312 134.585938 62.269531 134.578125 C 63.449219 134.566406 64.628906 134.558594 65.808594 134.554688 C 67.609375 134.542969 69.40625 134.507812 71.207031 134.476562 C 72.355469 134.46875 73.503906 134.460938 74.648438 134.457031 C 75.453125 134.4375 75.453125 134.4375 76.273438 134.414062 C 79.976562 134.433594 81.648438 135.304688 84.328125 137.789062 C 85.074219 138.035156 85.820312 138.285156 86.589844 138.542969 C 86.589844 139.039062 86.589844 139.535156 86.589844 140.046875 C 88.15625 140.859375 89.671875 141.578125 91.339844 142.164062 C 94.074219 143.371094 96.238281 145.039062 98.636719 146.824219 C 98.253906 150.054688 97.839844 152.933594 96.375 155.859375 C 95.632812 156.230469 95.632812 156.230469 94.871094 156.613281 C 94.015625 158.128906 94.015625 158.128906 93.363281 159.625 C 89.835938 159.410156 88.109375 157.777344 85.644531 155.460938 C 84.355469 154.285156 84.355469 154.285156 82.707031 153.550781 C 81.316406 152.847656 81.316406 152.847656 80.566406 151.339844 C 79.171875 150.550781 79.171875 150.550781 77.554688 149.835938 C 74.625 148.496094 74.625 148.496094 73.789062 146.824219 C 67.578125 146.824219 61.363281 146.824219 54.964844 146.824219 C 52.707031 139.292969 52.707031 139.292969 53.457031 135.53125 C 55.730469 134.394531 58.085938 134.621094 60.578125 134.597656 Z M 60.578125 134.597656 "/>
<path style=" stroke:none;fill-rule:nonzero;fill:rgb(12.941177%,19.215687%,34.901962%);fill-opacity:1;" d="M 185.222656 54.210938 C 185.441406 54.675781 185.660156 55.144531 185.882812 55.625 C 186.683594 57.324219 186.683594 57.324219 188.234375 58.730469 C 188.847656 62.09375 188.792969 63.804688 187.046875 66.78125 C 185.492188 68.914062 183.875 70.980469 182.210938 73.035156 C 181.453125 74.035156 180.699219 75.039062 179.953125 76.046875 C 179.59375 76.527344 179.230469 77.007812 178.859375 77.5 C 175.515625 81.976562 172.257812 86.511719 169.023438 91.066406 C 165.984375 95.347656 162.882812 99.578125 159.71875 103.765625 C 156.199219 108.421875 152.808594 113.152344 149.464844 117.933594 C 146.839844 121.679688 144.128906 125.34375 141.363281 128.988281 C 137.144531 134.558594 133.089844 140.230469 129.578125 146.28125 C 128 148.328125 128 148.328125 126.183594 148.980469 C 120.761719 149 117.886719 147.503906 113.710938 144.128906 C 111.136719 142.066406 108.453125 140.257812 105.695312 138.445312 C 104.730469 137.808594 103.765625 137.171875 102.800781 136.53125 C 102.34375 136.230469 101.890625 135.933594 101.421875 135.621094 C 99.703125 134.484375 97.992188 133.335938 96.28125 132.1875 C 94.089844 130.726562 91.878906 129.324219 89.601562 128 C 89.847656 127.253906 90.097656 126.507812 90.351562 125.742188 C 90.601562 125.988281 90.851562 126.238281 91.105469 126.492188 C 92.21875 126.429688 93.335938 126.347656 94.445312 126.257812 C 99.304688 126.1875 102.285156 128.332031 106.164062 131.011719 C 108.085938 132.210938 109.773438 133.214844 111.90625 133.976562 C 114.003906 134.914062 114.609375 135.976562 115.953125 137.789062 C 116.949219 138.070312 117.953125 138.320312 118.964844 138.542969 C 119.734375 139.277344 120.484375 140.03125 121.222656 140.800781 C 123.179688 142.242188 124.433594 143.015625 126.871094 143.199219 C 129.457031 141.972656 130.195312 140.21875 131.574219 137.773438 C 132.519531 136.28125 132.519531 136.28125 134.445312 134.777344 C 136.511719 133.082031 137.273438 131.394531 138.378906 129.003906 C 141.382812 123.234375 145.894531 118.15625 150.015625 113.160156 C 151.367188 111.398438 152.476562 109.582031 153.601562 107.671875 C 154.605469 106.414062 155.609375 105.160156 156.613281 103.90625 C 158.898438 100.714844 161.125 97.484375 163.339844 94.242188 C 163.808594 93.5625 164.273438 92.886719 164.753906 92.1875 C 165.175781 91.566406 165.601562 90.945312 166.039062 90.304688 C 167.152344 88.847656 167.152344 88.847656 168.660156 88.09375 C 168.972656 87.273438 168.972656 87.273438 169.292969 86.433594 C 170.351562 83.878906 171.8125 82.148438 173.601562 80.046875 C 175.878906 77.449219 175.878906 77.449219 177.695312 74.542969 C 178.191406 74.542969 178.6875 74.542969 179.199219 74.542969 C 179.480469 73.75 179.480469 73.75 179.765625 72.941406 C 180.828125 70.496094 182.242188 68.472656 183.71875 66.257812 C 185.078125 63.429688 185.394531 61.242188 185.316406 58.117188 C 185.304688 57.382812 185.289062 56.648438 185.277344 55.890625 C 185.257812 55.335938 185.242188 54.78125 185.222656 54.210938 Z M 185.222656 54.210938 "/>
<path style=" stroke:none;fill-rule:nonzero;fill:rgb(8.235294%,9.411765%,12.941177%);fill-opacity:1;" d="M 74.542969 151.339844 C 78.214844 152.601562 81.3125 154.628906 84.566406 156.707031 C 85.121094 157.058594 85.679688 157.410156 86.253906 157.773438 C 87.621094 158.636719 88.988281 159.507812 90.351562 160.375 C 89.992188 163.933594 88.527344 165.71875 86.210938 168.375 C 83.660156 171.25 83.660156 171.25 82.070312 174.683594 C 72.519531 174.832031 62.996094 174.371094 53.457031 173.929688 C 53.457031 173.679688 53.457031 173.433594 53.457031 173.175781 C 58.429688 173.175781 63.398438 173.175781 68.519531 173.175781 C 68.765625 171.4375 69.015625 169.699219 69.269531 167.90625 C 69.519531 166.902344 69.796875 165.902344 70.113281 164.914062 C 70.273438 164.410156 70.4375 163.902344 70.601562 163.382812 C 70.769531 162.871094 70.933594 162.359375 71.105469 161.835938 C 71.269531 161.324219 71.433594 160.808594 71.601562 160.28125 C 72.558594 157.292969 73.542969 154.316406 74.542969 151.339844 Z M 74.542969 151.339844 "/>
<path style=" stroke:none;fill-rule:nonzero;fill:rgb(20.392157%,23.137255%,32.156864%);fill-opacity:1;" d="M 140.800781 21.835938 C 141.171875 22.582031 141.171875 22.582031 141.554688 23.339844 C 145.28125 23.339844 149.007812 23.339844 152.847656 23.339844 C 150.382812 24.984375 148.234375 25.660156 145.410156 26.542969 C 140.832031 28.015625 136.558594 29.808594 132.214844 31.886719 C 129.03125 33.347656 125.800781 34.628906 122.542969 35.90625 C 115.589844 38.636719 108.761719 41.613281 101.949219 44.664062 C 100.8125 45.171875 100.8125 45.171875 99.652344 45.6875 C 98.984375 45.988281 98.316406 46.289062 97.625 46.601562 C 95.460938 47.503906 93.371094 48.332031 91.105469 48.941406 C 88.707031 47.90625 88.707031 47.90625 86.589844 46.683594 C 85.84375 46.683594 85.097656 46.683594 84.328125 46.683594 C 84.328125 46.183594 84.328125 45.6875 84.328125 45.175781 C 84.976562 44.957031 85.625 44.738281 86.292969 44.511719 C 90.988281 42.882812 95.511719 41.171875 100 39.011719 C 103.8125 37.195312 107.277344 36.09375 111.433594 35.386719 C 111.433594 34.890625 111.433594 34.394531 111.433594 33.882812 C 112.609375 33.519531 113.789062 33.160156 114.964844 32.800781 C 115.621094 32.597656 116.273438 32.398438 116.949219 32.191406 C 118.867188 31.652344 120.773438 31.234375 122.730469 30.871094 C 122.730469 30.375 122.730469 29.875 122.730469 29.363281 C 124.21875 29.363281 125.710938 29.363281 127.246094 29.363281 C 127.246094 28.867188 127.246094 28.371094 127.246094 27.859375 C 128.59375 27.355469 129.945312 26.851562 131.292969 26.351562 C 132.046875 26.074219 132.796875 25.792969 133.570312 25.507812 C 135.53125 24.847656 135.53125 24.847656 137.035156 24.847656 C 137.035156 24.351562 137.035156 23.851562 137.035156 23.339844 C 138.277344 22.84375 139.519531 22.347656 140.800781 21.835938 Z M 140.800781 21.835938 "/>
<path style=" stroke:none;fill-rule:nonzero;fill:rgb(22.745098%,34.901962%,66.274512%);fill-opacity:1;" d="M 60.382812 134.703125 C 60.914062 134.703125 61.449219 134.703125 61.996094 134.707031 C 63.699219 134.710938 65.402344 134.71875 67.105469 134.730469 C 68.261719 134.734375 69.414062 134.738281 70.566406 134.738281 C 73.398438 134.746094 76.226562 134.761719 79.058594 134.777344 C 79.8125 137.789062 79.8125 137.789062 76.800781 146.824219 C 69.59375 146.824219 62.390625 146.824219 54.964844 146.824219 C 52.707031 139.292969 52.707031 139.292969 53.457031 135.53125 C 55.6875 134.414062 57.941406 134.683594 60.382812 134.703125 Z M 60.382812 134.703125 "/>
<path style=" stroke:none;fill-rule:nonzero;fill:rgb(8.235294%,12.54902%,23.921569%);fill-opacity:1;" d="M 167.152344 62.492188 C 167.898438 62.742188 168.644531 62.992188 169.410156 63.246094 C 169.078125 66.957031 167.183594 69.226562 164.894531 72 C 164.519531 72.464844 164.144531 72.929688 163.761719 73.40625 C 162.640625 74.796875 161.507812 76.175781 160.375 77.554688 C 159.792969 78.265625 159.210938 78.976562 158.613281 79.710938 C 157.523438 81.042969 156.429688 82.371094 155.339844 83.699219 C 151.277344 88.691406 147.304688 93.757812 143.410156 98.878906 C 139.777344 103.652344 136.054688 108.300781 132.132812 112.839844 C 130.242188 115.011719 130.242188 115.011719 128.753906 117.457031 C 127.757812 117.210938 126.765625 116.960938 125.742188 116.707031 C 125.136719 115.089844 125.136719 115.089844 124.988281 112.941406 C 126.171875 111.316406 127.246094 110.050781 128.660156 108.660156 C 131.265625 106.132812 131.265625 106.132812 133.269531 103.152344 C 133.765625 103.152344 134.265625 103.152344 134.777344 103.152344 C 134.960938 102.75 135.148438 102.34375 135.339844 101.929688 C 136.511719 99.703125 137.8125 97.660156 139.292969 95.625 C 139.792969 95.625 140.289062 95.625 140.800781 95.625 C 140.996094 95.195312 141.191406 94.765625 141.394531 94.324219 C 144.507812 88.476562 149.652344 83.511719 153.96875 78.503906 C 158.480469 73.261719 162.835938 67.898438 167.152344 62.492188 Z M 167.152344 62.492188 "/>
<path style=" stroke:none;fill-rule:nonzero;fill:rgb(21.568628%,33.333334%,62.7451%);fill-opacity:1;" d="M 143.058594 19.578125 C 142.453125 19.917969 141.847656 20.257812 141.222656 20.613281 C 139.226562 21.644531 139.226562 21.644531 138.542969 23.339844 C 138.042969 23.339844 137.546875 23.339844 137.035156 23.339844 C 137.035156 23.839844 137.035156 24.335938 137.035156 24.847656 C 135.828125 25.355469 134.621094 25.855469 133.410156 26.351562 C 132.738281 26.632812 132.066406 26.910156 131.375 27.199219 C 129.507812 27.859375 129.507812 27.859375 127.246094 27.859375 C 127.246094 28.355469 127.246094 28.851562 127.246094 29.363281 C 125.757812 29.363281 124.265625 29.363281 122.730469 29.363281 C 122.730469 29.863281 122.730469 30.359375 122.730469 30.871094 C 118.871094 32.71875 115.699219 33.507812 111.433594 33.882812 C 111.433594 34.378906 111.433594 34.875 111.433594 35.386719 C 110.425781 35.730469 110.425781 35.730469 109.394531 36.078125 C 104.410156 37.804688 99.746094 39.648438 95.070312 42.113281 C 92.550781 43.300781 90.066406 43.867188 87.339844 44.421875 C 87.339844 43.925781 87.339844 43.429688 87.339844 42.917969 C 86.84375 42.667969 86.347656 42.421875 85.835938 42.164062 C 86.332031 41.917969 86.828125 41.667969 87.339844 41.410156 C 85.851562 41.410156 84.359375 41.410156 82.824219 41.410156 C 84.648438 39.585938 85.941406 39.335938 88.421875 38.683594 C 89.515625 38.386719 89.515625 38.386719 90.632812 38.089844 C 92.613281 37.648438 92.613281 37.648438 94.871094 37.648438 C 94.871094 37.148438 94.871094 36.652344 94.871094 36.140625 C 99.988281 33.921875 105.136719 32.300781 110.53125 30.890625 C 112.875 30.140625 114.648438 29.1875 116.707031 27.859375 C 118.953125 26.84375 120.246094 26.351562 122.730469 26.351562 C 122.730469 25.855469 122.730469 25.359375 122.730469 24.847656 C 124.171875 24.464844 125.613281 24.089844 127.058594 23.71875 C 127.863281 23.507812 128.667969 23.296875 129.492188 23.082031 C 131.765625 22.589844 131.765625 22.589844 134.777344 22.589844 C 134.777344 22.089844 134.777344 21.59375 134.777344 21.082031 C 135.769531 21.082031 136.765625 21.082031 137.789062 21.082031 C 137.789062 20.585938 137.789062 20.089844 137.789062 19.578125 C 140.148438 18.789062 140.792969 18.871094 143.058594 19.578125 Z M 143.058594 19.578125 "/>
<path style=" stroke:none;fill-rule:nonzero;fill:rgb(78.039217%,53.333336%,0%);fill-opacity:1;" d="M 72.28125 74.542969 C 72.777344 75.039062 73.277344 75.535156 73.789062 76.046875 C 72.625 76.257812 72.625 76.257812 71.433594 76.46875 C 67.855469 77.496094 66.003906 79.789062 64 82.824219 C 60.765625 89.585938 62.695312 96.5625 65.042969 103.28125 C 67.042969 108.402344 70.476562 112.125 75.246094 114.824219 C 78.417969 116.210938 81.648438 116.546875 85.082031 116.707031 C 85.082031 117.699219 85.082031 118.695312 85.082031 119.71875 C 79.835938 120.320312 76.292969 119.628906 71.882812 116.691406 C 67.480469 113.160156 63.457031 109.601562 62.492188 103.90625 C 61.75 103.578125 61.75 103.578125 60.988281 103.246094 C 60.492188 102.96875 59.996094 102.6875 59.480469 102.398438 C 58.683594 98.421875 58.546875 94.449219 58.492188 90.398438 C 58.472656 89.828125 58.449219 89.253906 58.429688 88.667969 C 58.378906 84.355469 59.347656 81.15625 61.742188 77.554688 C 65.152344 74.226562 67.671875 73.207031 72.28125 74.542969 Z M 72.28125 74.542969 "/>
<path style=" stroke:none;fill-rule:nonzero;fill:rgb(7.843138%,9.019608%,12.54902%);fill-opacity:1;" d="M 67.011719 48.1875 C 67.050781 49.269531 67.082031 50.351562 67.105469 51.433594 C 67.125 52.039062 67.140625 52.640625 67.160156 53.261719 C 67.011719 54.964844 67.011719 54.964844 65.507812 57.222656 C 63.722656 57.6875 63.722656 57.6875 61.511719 57.9375 C 60.714844 58.03125 59.917969 58.128906 59.097656 58.226562 C 58.261719 58.3125 57.425781 58.402344 56.566406 58.492188 C 55.734375 58.589844 54.90625 58.6875 54.050781 58.789062 C 50.8125 59.160156 47.683594 59.480469 44.421875 59.480469 C 44.660156 58.023438 44.660156 58.023438 45.175781 56.46875 C 45.921875 56.222656 46.667969 55.972656 47.433594 55.71875 C 47.433594 55.222656 47.433594 54.722656 47.433594 54.210938 C 48.78125 53.75 48.78125 53.75 50.15625 53.277344 C 51.335938 52.867188 52.515625 52.457031 53.695312 52.046875 C 54.582031 51.742188 54.582031 51.742188 55.488281 51.433594 C 56.058594 51.234375 56.628906 51.035156 57.214844 50.828125 C 58 50.558594 58 50.558594 58.804688 50.28125 C 64.21875 48.0625 64.21875 48.0625 67.011719 48.1875 Z M 67.011719 48.1875 "/>
<path style=" stroke:none;fill-rule:nonzero;fill:rgb(52.549022%,33.725491%,1.176471%);fill-opacity:1;" d="M 54.964844 72.28125 C 55.460938 72.53125 55.957031 72.777344 56.46875 73.035156 C 55.433594 74.542969 55.433594 74.542969 54.210938 76.046875 C 53.714844 76.046875 53.21875 76.046875 52.707031 76.046875 C 52.503906 76.589844 52.300781 77.132812 52.09375 77.695312 C 51.207031 79.796875 50.121094 81.628906 48.941406 83.578125 C 48.003906 86.386719 48.011719 89.023438 48 91.953125 C 47.996094 92.53125 47.992188 93.109375 47.992188 93.703125 C 48.03125 97.464844 48.535156 100.460938 49.992188 103.953125 C 50.800781 106.546875 50.21875 108.8125 49.695312 111.433594 C 45.964844 108.238281 44.871094 102.945312 43.859375 98.304688 C 43.308594 90.449219 42.921875 83.339844 48.046875 76.894531 C 50.089844 74.703125 52.117188 73.316406 54.964844 72.28125 Z M 54.964844 72.28125 "/>
<path style=" stroke:none;fill-rule:nonzero;fill:rgb(23.921569%,35.686275%,66.274512%);fill-opacity:1;" d="M 33.128906 115.953125 C 33.875 115.953125 34.621094 115.953125 35.386719 115.953125 C 36.601562 117.742188 36.601562 117.742188 37.882812 120.140625 C 41.460938 126.511719 45.203125 130.621094 51.199219 134.777344 C 50.953125 135.769531 50.703125 136.765625 50.445312 137.789062 C 44.675781 134.964844 39.648438 130.40625 36.140625 124.988281 C 36.140625 124.242188 36.140625 123.496094 36.140625 122.730469 C 35.644531 122.730469 35.148438 122.730469 34.636719 122.730469 C 32.910156 120.144531 32.996094 118.976562 33.128906 115.953125 Z M 33.128906 115.953125 "/>
<path style=" stroke:none;fill-rule:nonzero;fill:rgb(3.529412%,4.313726%,6.666667%);fill-opacity:1;" d="M 91.105469 86.589844 C 94.535156 89.609375 94.730469 93.507812 95.023438 97.898438 C 95.097656 100.40625 95.113281 102.90625 95.105469 105.410156 C 95.117188 106.257812 95.128906 107.105469 95.144531 107.976562 C 95.148438 115.476562 93.511719 120.910156 89.601562 127.246094 C 89.101562 126.75 88.605469 126.253906 88.09375 125.742188 C 88.355469 125.304688 88.621094 124.867188 88.890625 124.417969 C 89.40625 123.535156 89.40625 123.535156 89.929688 122.636719 C 90.269531 122.058594 90.609375 121.480469 90.960938 120.886719 C 93.117188 116.265625 92.757812 111.164062 92.753906 106.164062 C 92.753906 105.398438 92.753906 104.632812 92.753906 103.84375 C 92.714844 97.972656 92.226562 92.363281 91.105469 86.589844 Z M 91.105469 86.589844 "/>
<path style=" stroke:none;fill-rule:nonzero;fill:rgb(71.764708%,57.254905%,1.176471%);fill-opacity:1;" d="M 61.742188 94.117188 C 63.449219 95.824219 63.511719 96.425781 63.90625 98.730469 C 65.414062 105.816406 68.617188 110.191406 74.542969 114.445312 C 77.019531 115.628906 79.203125 116.179688 81.929688 116.421875 C 82.523438 116.480469 83.121094 116.535156 83.730469 116.59375 C 84.179688 116.632812 84.625 116.667969 85.082031 116.707031 C 84.832031 117.699219 84.585938 118.695312 84.328125 119.71875 C 84.328125 119.222656 84.328125 118.722656 84.328125 118.210938 C 83.070312 118.328125 83.070312 118.328125 81.789062 118.445312 C 76.917969 118.421875 72.796875 116.285156 69.230469 113.042969 C 67.886719 111.558594 66.683594 110.042969 65.507812 108.421875 C 65.027344 107.808594 65.027344 107.808594 64.542969 107.183594 C 61.839844 103.230469 61.894531 98.777344 61.742188 94.117188 Z M 61.742188 94.117188 "/>
<path style=" stroke:none;fill-rule:nonzero;fill:rgb(91.764706%,57.647061%,0%);fill-opacity:1;" d="M 60.234375 96.375 C 62.433594 98.074219 62.789062 99.722656 63.46875 102.328125 C 65.789062 109.203125 70.117188 113.632812 76.421875 116.941406 C 79.046875 117.664062 81.621094 117.9375 84.328125 118.210938 C 84.328125 118.707031 84.328125 119.207031 84.328125 119.71875 C 78.296875 120.300781 74.777344 118.9375 70.023438 115.199219 C 65.339844 110.929688 61.738281 106.394531 60.234375 100.140625 C 60.195312 98.886719 60.183594 97.628906 60.234375 96.375 Z M 60.234375 96.375 "/>
<path style=" stroke:none;fill-rule:nonzero;fill:rgb(20.784314%,31.764707%,60.392159%);fill-opacity:1;" d="M 143.058594 19.578125 C 142.453125 19.917969 141.847656 20.257812 141.222656 20.613281 C 139.226562 21.644531 139.226562 21.644531 138.542969 23.339844 C 138.042969 23.339844 137.546875 23.339844 137.035156 23.339844 C 137.035156 23.839844 137.035156 24.335938 137.035156 24.847656 C 135.8125 25.351562 134.589844 25.851562 133.363281 26.351562 C 132.683594 26.632812 132.003906 26.910156 131.300781 27.199219 C 129.507812 27.859375 129.507812 27.859375 128 27.859375 C 128 27.113281 128 26.367188 128 25.601562 C 126.261719 25.601562 124.519531 25.601562 122.730469 25.601562 C 124.824219 24.203125 125.941406 23.753906 128.328125 23.246094 C 128.902344 23.121094 129.476562 22.996094 130.066406 22.863281 C 131.765625 22.589844 131.765625 22.589844 134.777344 22.589844 C 134.777344 22.089844 134.777344 21.59375 134.777344 21.082031 C 135.769531 21.082031 136.765625 21.082031 137.789062 21.082031 C 137.789062 20.585938 137.789062 20.089844 137.789062 19.578125 C 140.148438 18.789062 140.792969 18.871094 143.058594 19.578125 Z M 143.058594 19.578125 "/>
<path style=" stroke:none;fill-rule:nonzero;fill:rgb(14.509805%,22.352941%,41.960785%);fill-opacity:1;" d="M 96.375 146.070312 C 97.121094 146.320312 97.867188 146.566406 98.636719 146.824219 C 98.253906 150.054688 97.839844 152.933594 96.375 155.859375 C 95.632812 156.230469 95.632812 156.230469 94.871094 156.613281 C 94.015625 158.128906 94.015625 158.128906 93.363281 159.625 C 92.121094 159.375 90.878906 159.125 89.601562 158.871094 C 90.34375 158.621094 91.089844 158.375 91.859375 158.117188 C 92.554688 156.515625 92.554688 156.515625 92.988281 154.589844 C 93.816406 151.53125 94.835938 148.859375 96.375 146.070312 Z M 96.375 146.070312 "/>
<path style=" stroke:none;fill-rule:nonzero;fill:rgb(19.215687%,29.411766%,55.29412%);fill-opacity:1;" d="M 168.660156 86.589844 C 168.660156 88.847656 168.660156 88.847656 167.707031 89.878906 C 167.273438 90.285156 166.84375 90.6875 166.398438 91.105469 C 165.4375 92.363281 164.5 93.632812 163.578125 94.917969 C 162.785156 96.011719 162.785156 96.011719 161.980469 97.128906 C 160.039062 99.867188 158.140625 102.632812 156.269531 105.414062 C 155.105469 106.917969 155.105469 106.917969 152.847656 108.421875 C 153.300781 106.058594 154.050781 104.570312 155.519531 102.667969 C 155.90625 102.15625 156.292969 101.648438 156.695312 101.121094 C 157.101562 100.597656 157.507812 100.070312 157.929688 99.53125 C 158.726562 98.488281 159.523438 97.449219 160.316406 96.410156 C 160.707031 95.902344 161.097656 95.394531 161.5 94.875 C 162.59375 93.417969 163.636719 91.9375 164.671875 90.4375 C 166.398438 88.09375 166.398438 88.09375 168.660156 86.589844 Z M 168.660156 86.589844 "/>
<path style=" stroke:none;fill-rule:nonzero;fill:rgb(80.392158%,56.470591%,1.568628%);fill-opacity:1;" d="M 72.28125 74.542969 C 72.777344 75.039062 73.277344 75.535156 73.789062 76.046875 C 73.042969 76.1875 72.296875 76.328125 71.53125 76.46875 C 67.125 77.699219 64.136719 81.179688 60.988281 84.328125 C 61.382812 81.238281 62.230469 79.648438 64.328125 77.363281 C 64.792969 76.847656 65.257812 76.332031 65.738281 75.800781 C 68.027344 73.539062 69.265625 73.710938 72.28125 74.542969 Z M 72.28125 74.542969 "/>
<path style=" stroke:none;fill-rule:nonzero;fill:rgb(17.647059%,27.058825%,50.588238%);fill-opacity:1;" d="M 137.789062 129.507812 C 137.789062 132.753906 136.183594 133.96875 134.023438 136.28125 C 133.527344 136.28125 133.03125 136.28125 132.519531 136.28125 C 132.332031 136.824219 132.144531 137.371094 131.953125 137.929688 C 130.929688 140.234375 129.632812 141.90625 128 143.8125 C 124.417969 143.378906 122 141.890625 118.964844 140.046875 C 120.234375 139.53125 120.234375 139.53125 121.976562 139.292969 C 123.253906 140.011719 124.507812 140.761719 125.742188 141.554688 C 126.488281 141.554688 127.230469 141.554688 128 141.554688 C 128.976562 140.320312 128.976562 140.320312 129.789062 138.730469 C 131.375 136.011719 132.976562 134.398438 135.53125 132.519531 C 136.855469 130.917969 136.855469 130.917969 137.789062 129.507812 Z M 137.789062 129.507812 "/>
<path style=" stroke:none;fill-rule:nonzero;fill:rgb(25.098041%,37.254903%,69.01961%);fill-opacity:1;" d="M 27.859375 103.90625 C 28.355469 103.90625 28.851562 103.90625 29.363281 103.90625 C 31.484375 107.703125 32.765625 110.851562 33.128906 115.199219 C 32.382812 115.449219 31.636719 115.695312 30.871094 115.953125 C 28.75 111.773438 27.457031 108.617188 27.859375 103.90625 Z M 27.859375 103.90625 "/>
<path style=" stroke:none;fill-rule:nonzero;fill:rgb(74.509805%,47.450981%,0%);fill-opacity:1;" d="M 61.742188 103.90625 C 62.488281 105.023438 62.488281 105.023438 63.246094 106.164062 C 66.5625 110.78125 69.726562 114.402344 74.628906 117.339844 C 76.046875 118.210938 76.046875 118.210938 77.554688 119.71875 C 71.089844 118.765625 67.269531 115.324219 63.386719 110.304688 C 61.851562 108.113281 61.328125 106.636719 61.742188 103.90625 Z M 61.742188 103.90625 "/>
<path style=" stroke:none;fill-rule:nonzero;fill:rgb(73.333335%,46.666667%,0%);fill-opacity:1;" d="M 65.507812 74.542969 C 66.003906 74.789062 66.5 75.039062 67.011719 75.292969 C 66.46875 75.867188 66.46875 75.867188 65.910156 76.453125 C 65.4375 76.972656 64.960938 77.488281 64.46875 78.023438 C 63.761719 78.785156 63.761719 78.785156 63.042969 79.558594 C 60.292969 83.277344 59.972656 87.269531 59.765625 91.765625 C 59.734375 92.28125 59.707031 92.800781 59.675781 93.335938 C 59.605469 94.601562 59.542969 95.863281 59.480469 97.128906 C 59.234375 97.128906 58.984375 97.128906 58.730469 97.128906 C 58.648438 94.996094 58.589844 92.863281 58.542969 90.730469 C 58.515625 90.132812 58.492188 89.539062 58.464844 88.921875 C 58.390625 84.515625 59.234375 81.222656 61.742188 77.554688 C 63.8125 75.671875 63.8125 75.671875 65.507812 74.542969 Z M 65.507812 74.542969 "/>
<path style=" stroke:none;fill-rule:nonzero;fill:rgb(23.137255%,35.294119%,67.450982%);fill-opacity:1;" d="M 108.421875 33.882812 C 107.664062 35.898438 107.261719 36.726562 105.289062 37.683594 C 104.675781 37.855469 104.066406 38.03125 103.433594 38.210938 C 102.511719 38.484375 102.511719 38.484375 101.570312 38.765625 C 100.863281 38.957031 100.863281 38.957031 100.140625 39.152344 C 99.644531 37.910156 99.148438 36.667969 98.636719 35.386719 C 99.699219 34.984375 100.765625 34.597656 101.835938 34.210938 C 102.429688 33.992188 103.023438 33.773438 103.636719 33.550781 C 105.554688 33.09375 106.582031 33.246094 108.421875 33.882812 Z M 108.421875 33.882812 "/>
<path style=" stroke:none;fill-rule:nonzero;fill:rgb(8.627451%,9.803922%,13.725491%);fill-opacity:1;" d="M 149.835938 33.128906 C 151.625 32.988281 151.625 32.988281 153.601562 33.128906 C 155.105469 35.386719 155.105469 35.386719 154.824219 37.035156 C 154.667969 37.484375 154.511719 37.9375 154.351562 38.398438 C 153.359375 38.398438 152.363281 38.398438 151.339844 38.398438 C 151.339844 37.902344 151.339844 37.40625 151.339844 36.894531 C 150.597656 36.644531 149.851562 36.398438 149.082031 36.140625 C 149.332031 35.148438 149.578125 34.152344 149.835938 33.128906 Z M 149.835938 33.128906 "/>
<path style=" stroke:none;fill-rule:nonzero;fill:rgb(25.490198%,37.254903%,68.627453%);fill-opacity:1;" d="M 143.8125 97.882812 C 144.308594 97.882812 144.804688 97.882812 145.316406 97.882812 C 144.140625 100.535156 142.535156 102.605469 140.707031 104.847656 C 140.160156 105.519531 139.613281 106.191406 139.054688 106.882812 C 138.636719 107.390625 138.21875 107.898438 137.789062 108.421875 C 137.539062 107.679688 137.292969 106.933594 137.035156 106.164062 C 138.390625 104.132812 138.390625 104.132812 140.28125 101.882812 C 140.902344 101.132812 141.519531 100.386719 142.15625 99.613281 C 142.703125 99.042969 143.25 98.472656 143.8125 97.882812 Z M 143.8125 97.882812 "/>
<path style=" stroke:none;fill-rule:nonzero;fill:rgb(18.82353%,28.627452%,53.725493%);fill-opacity:1;" d="M 184.46875 62.492188 C 184.71875 62.992188 184.96875 63.488281 185.222656 64 C 183.960938 67.574219 182.085938 70.558594 179.199219 73.035156 C 178.960938 70.625 179.054688 69.507812 180.351562 67.421875 C 181.085938 66.542969 181.085938 66.542969 181.835938 65.648438 C 182.324219 65.050781 182.8125 64.457031 183.316406 63.84375 C 183.699219 63.398438 184.078125 62.953125 184.46875 62.492188 Z M 184.46875 62.492188 "/>
<path style=" stroke:none;fill-rule:nonzero;fill:rgb(10.196079%,11.372549%,15.686275%);fill-opacity:1;" d="M 98.636719 56.46875 C 100.894531 57.222656 100.894531 57.222656 102.023438 59.054688 C 102.394531 59.800781 102.769531 60.546875 103.152344 61.316406 C 104.804688 64.671875 104.804688 64.671875 107.671875 67.011719 C 106.429688 67.011719 105.1875 67.011719 103.90625 67.011719 C 103.167969 65.679688 102.429688 64.347656 101.695312 63.011719 C 101.285156 62.269531 100.871094 61.527344 100.449219 60.761719 C 99.386719 58.730469 99.386719 58.730469 98.636719 56.46875 Z M 98.636719 56.46875 "/>
<path style=" stroke:none;fill-rule:nonzero;fill:rgb(16.862746%,20.392157%,29.019609%);fill-opacity:1;" d="M 105.410156 38.398438 C 102.964844 40.03125 100.4375 41.128906 97.742188 42.257812 C 97.25 42.46875 96.757812 42.675781 96.25 42.890625 C 95.039062 43.402344 93.824219 43.914062 92.613281 44.421875 C 93.363281 42.164062 93.363281 42.164062 94.925781 41.121094 C 101.441406 37.878906 101.441406 37.878906 105.410156 38.398438 Z M 105.410156 38.398438 "/>
<path style=" stroke:none;fill-rule:nonzero;fill:rgb(87.450981%,55.29412%,0%);fill-opacity:1;" d="M 60.234375 96.375 C 62.835938 98.386719 63.226562 100.8125 64 103.90625 C 64.25 104.652344 64.496094 105.398438 64.753906 106.164062 C 64.257812 106.660156 63.757812 107.160156 63.246094 107.671875 C 62.738281 106.496094 62.238281 105.320312 61.742188 104.140625 C 61.460938 103.484375 61.183594 102.832031 60.894531 102.15625 C 60.222656 100.097656 60.113281 98.523438 60.234375 96.375 Z M 60.234375 96.375 "/>
<path style=" stroke:none;fill-rule:nonzero;fill:rgb(15.686275%,23.137255%,42.745098%);fill-opacity:1;" d="M 185.222656 54.210938 C 186.9375 56.957031 187.675781 60.023438 187.480469 63.246094 C 186.023438 65.128906 186.023438 65.128906 184.46875 66.257812 C 184.523438 65.703125 184.578125 65.152344 184.636719 64.578125 C 184.707031 63.84375 184.773438 63.109375 184.847656 62.351562 C 184.917969 61.628906 184.988281 60.902344 185.058594 60.15625 C 185.210938 58.164062 185.253906 56.207031 185.222656 54.210938 Z M 185.222656 54.210938 "/>
<path style=" stroke:none;fill-rule:nonzero;fill:rgb(16.470589%,19.215687%,27.450982%);fill-opacity:1;" d="M 129.507812 29.363281 C 122.421875 32.683594 122.421875 32.683594 118.964844 33.128906 C 118.964844 32.632812 118.964844 32.136719 118.964844 31.625 C 120.207031 31.375 121.449219 31.125 122.730469 30.871094 C 122.730469 30.375 122.730469 29.875 122.730469 29.363281 C 126.964844 28.519531 126.964844 28.519531 129.507812 29.363281 Z M 129.507812 29.363281 "/>
<path style=" stroke:none;fill-rule:nonzero;fill:rgb(23.529412%,35.294119%,65.490198%);fill-opacity:1;" d="M 30.871094 107.671875 C 32.597656 110.265625 32.78125 112.140625 33.128906 115.199219 C 32.382812 115.449219 31.636719 115.695312 30.871094 115.953125 C 30.078125 112.953125 30.238281 110.695312 30.871094 107.671875 Z M 30.871094 107.671875 "/>
<path style=" stroke:none;fill-rule:nonzero;fill:rgb(81.568629%,73.725492%,1.176471%);fill-opacity:1;" d="M 61.742188 94.117188 C 63.453125 95.832031 63.589844 96.59375 64.046875 98.917969 C 64.488281 101.097656 64.949219 103.257812 65.507812 105.410156 C 65.007812 105.410156 64.511719 105.410156 64 105.410156 C 62.292969 102.847656 62.21875 101.523438 62.023438 98.492188 C 61.96875 97.675781 61.910156 96.859375 61.851562 96.015625 C 61.816406 95.390625 61.777344 94.761719 61.742188 94.117188 Z M 61.742188 94.117188 "/>
<path style=" stroke:none;fill-rule:nonzero;fill:rgb(18.431373%,27.843139%,51.764709%);fill-opacity:1;" d="M 143.058594 19.578125 C 142.453125 19.917969 141.847656 20.257812 141.222656 20.613281 C 139.226562 21.644531 139.226562 21.644531 138.542969 23.339844 C 137.296875 23.09375 136.054688 22.84375 134.777344 22.589844 C 134.777344 22.089844 134.777344 21.59375 134.777344 21.082031 C 135.769531 21.082031 136.765625 21.082031 137.789062 21.082031 C 137.789062 20.585938 137.789062 20.089844 137.789062 19.578125 C 140.148438 18.789062 140.792969 18.871094 143.058594 19.578125 Z M 143.058594 19.578125 "/>
<path style=" stroke:none;fill-rule:nonzero;fill:rgb(2.745098%,4.313726%,7.058824%);fill-opacity:1;" d="M 85.835938 155.859375 C 87.765625 156.644531 88.867188 157.382812 90.351562 158.871094 C 91.34375 159.394531 92.347656 159.902344 93.363281 160.375 C 89.382812 160.0625 87.253906 159.359375 84.328125 156.613281 C 84.828125 156.363281 85.324219 156.113281 85.835938 155.859375 Z M 85.835938 155.859375 "/>
<path style=" stroke:none;fill-rule:nonzero;fill:rgb(24.705882%,36.470589%,67.843139%);fill-opacity:1;" d="M 35.386719 119.71875 C 36.847656 120.234375 36.847656 120.234375 38.398438 121.222656 C 38.964844 123.199219 38.964844 123.199219 39.152344 124.988281 C 38.160156 124.738281 37.164062 124.492188 36.140625 124.234375 C 36.140625 123.738281 36.140625 123.242188 36.140625 122.730469 C 35.644531 122.730469 35.148438 122.730469 34.636719 122.730469 C 34.882812 121.734375 35.132812 120.742188 35.386719 119.71875 Z M 35.386719 119.71875 "/>
<path style=" stroke:none;fill-rule:nonzero;fill:rgb(14.509805%,21.960784%,40.000001%);fill-opacity:1;" d="M 173.929688 79.8125 C 174.179688 79.8125 174.425781 79.8125 174.683594 79.8125 C 174.964844 81.507812 174.964844 81.507812 174.683594 83.578125 C 172.421875 85.316406 172.421875 85.316406 170.164062 86.589844 C 170.164062 83.265625 171.722656 82.234375 173.929688 79.8125 Z M 173.929688 79.8125 "/>
<path style=" stroke:none;fill-rule:nonzero;fill:rgb(10.196079%,15.294118%,27.450982%);fill-opacity:1;" d="M 186.730469 57.976562 C 187.226562 58.226562 187.722656 58.472656 188.234375 58.730469 C 188.605469 64.195312 188.605469 64.195312 186.730469 67.011719 C 186.234375 67.507812 185.734375 68.003906 185.222656 68.519531 C 185.882812 64.09375 185.882812 64.09375 186.730469 63.246094 C 186.761719 61.492188 186.761719 59.734375 186.730469 57.976562 Z M 186.730469 57.976562 "/>
<path style=" stroke:none;fill-rule:nonzero;fill:rgb(30.19608%,42.352942%,73.725492%);fill-opacity:1;" d="M 169.410156 61.742188 C 170.902344 62.488281 170.902344 62.488281 172.421875 63.246094 C 172.421875 64.242188 172.421875 65.234375 172.421875 66.257812 C 171.429688 66.257812 170.4375 66.257812 169.410156 66.257812 C 169.410156 64.769531 169.410156 63.277344 169.410156 61.742188 Z M 169.410156 61.742188 "/>
<path style=" stroke:none;fill-rule:nonzero;fill:rgb(7.058824%,10.588235%,20%);fill-opacity:1;" d="M 51.953125 135.53125 C 52.449219 135.777344 52.945312 136.027344 53.457031 136.28125 C 53.457031 138.519531 53.457031 140.753906 53.457031 143.058594 C 52.960938 142.5625 52.464844 142.066406 51.953125 141.554688 C 51.207031 141.554688 50.460938 141.554688 49.695312 141.554688 C 50.191406 140.808594 50.6875 140.0625 51.199219 139.292969 C 51.488281 138.046875 51.75 136.792969 51.953125 135.53125 Z M 51.953125 135.53125 "/>
<path style=" stroke:none;fill-rule:nonzero;fill:rgb(14.509805%,21.568628%,39.607844%);fill-opacity:1;" d="M 162.636719 94.871094 C 162.882812 94.871094 163.132812 94.871094 163.386719 94.871094 C 163.539062 97.667969 163.503906 98.464844 161.882812 100.894531 C 160.28125 101.410156 160.28125 101.410156 158.871094 101.648438 C 160 99.304688 161.234375 97.0625 162.636719 94.871094 Z M 162.636719 94.871094 "/>
<path style=" stroke:none;fill-rule:nonzero;fill:rgb(4.313726%,5.882353%,9.803922%);fill-opacity:1;" d="M 83.578125 74.542969 C 85.957031 75.574219 86.582031 76.039062 88.09375 78.304688 C 87.84375 79.050781 87.597656 79.796875 87.339844 80.566406 C 83.578125 76.234375 83.578125 76.234375 83.578125 74.542969 Z M 83.578125 74.542969 "/>
<path style=" stroke:none;fill-rule:nonzero;fill:rgb(10.196079%,15.294118%,29.019609%);fill-opacity:1;" d="M 167.152344 62.492188 C 167.898438 62.742188 168.644531 62.992188 169.410156 63.246094 C 169.164062 64.488281 168.914062 65.730469 168.660156 67.011719 C 168.160156 66.761719 167.664062 66.515625 167.152344 66.257812 C 167.152344 65.761719 167.152344 65.265625 167.152344 64.753906 C 166.65625 64.503906 166.160156 64.257812 165.648438 64 C 166.144531 63.503906 166.640625 63.007812 167.152344 62.492188 Z M 167.152344 62.492188 "/>
<path style=" stroke:none;fill-rule:nonzero;fill:rgb(16.078432%,25.098041%,47.450981%);fill-opacity:1;" d="M 44.421875 140.800781 C 46.660156 141.171875 46.660156 141.171875 48.941406 141.554688 C 48.941406 142.296875 48.941406 143.042969 48.941406 143.8125 C 46.703125 143.4375 46.703125 143.4375 44.421875 143.058594 C 44.421875 142.3125 44.421875 141.566406 44.421875 140.800781 Z M 44.421875 140.800781 "/>
<path style=" stroke:none;fill-rule:nonzero;fill:rgb(18.82353%,28.627452%,54.11765%);fill-opacity:1;" d="M 178.445312 73.035156 C 178.695312 73.53125 178.945312 74.027344 179.199219 74.542969 C 178.703125 74.542969 178.207031 74.542969 177.695312 74.542969 C 177.492188 74.992188 177.289062 75.441406 177.082031 75.90625 C 176.199219 77.53125 175.289062 78.574219 173.929688 79.8125 C 174.804688 76.53125 175.492188 74.808594 178.445312 73.035156 Z M 178.445312 73.035156 "/>
</g>
</svg>
